<?xml version="1.0" encoding="UTF-8"?><svg id="Layer_1" xmlns="http://www.w3.org/2000/svg" viewBox="0 0 1128.287 182.446"><defs><style>.cls-1{fill:#cea835;}</style></defs><path class="cls-1" d="M202.067,180.02l-12.857-42.211h-64.651l-12.857,42.211h-40.514L133.777,1.956h45.972l62.832,178.064h-40.514ZM180.233,106.271l-12.857-41.241c-.809-2.748-1.88-6.287-3.214-10.614-1.334-4.325-2.669-8.733-4.003-13.221-1.334-4.488-2.407-8.388-3.215-11.705-.809,3.317-1.921,7.42-3.335,12.312-1.416,4.894-2.771,9.522-4.063,13.888-1.295,4.367-2.226,7.481-2.79,9.34l-12.736,41.241h46.214Z"/><path class="cls-1" d="M258.688,180.02V2.683h37.603v177.337h-37.603Z"/><path d="M437.311,31.431c-7.198,0-13.566,1.395-19.104,4.185-5.54,2.79-10.188,6.813-13.949,12.069-3.76,5.258-6.61,11.605-8.552,19.044-1.94,7.441-2.911,15.81-2.911,25.109,0,12.535,1.557,23.228,4.67,32.083,3.112,8.855,7.945,15.608,14.495,20.257,6.551,4.651,14.999,6.974,25.352,6.974,7.196,0,14.413-.807,21.651-2.426,7.236-1.617,15.102-3.921,23.593-6.914v31.537c-7.845,3.235-15.568,5.561-23.168,6.975-7.603,1.414-16.133,2.123-25.594,2.123-18.276,0-33.296-3.779-45.062-11.341-11.766-7.56-20.479-18.153-26.14-31.78-5.661-13.625-8.49-29.536-8.49-47.73,0-13.422,1.819-25.715,5.458-36.875,3.639-11.159,8.977-20.821,16.012-28.99,7.035-8.167,15.727-14.474,26.079-18.922,10.35-4.446,22.236-6.671,35.661-6.671,8.812,0,17.648,1.113,26.503,3.336,8.855,2.225,17.325,5.276,25.412,9.158l-12.13,30.567c-6.631-3.154-13.303-5.902-20.014-8.248-6.713-2.344-13.303-3.518-19.771-3.518Z"/><path d="M616.2,180.02h-102.133V2.683h102.133v30.809h-64.53v38.937h60.042v30.81h-60.042v45.729h64.53v31.052Z"/><path d="M698.657,2.683c16.091,0,29.373,1.941,39.847,5.822,10.471,3.881,18.255,9.745,23.35,17.588,5.095,7.844,7.642,17.751,7.642,29.718,0,8.087-1.537,15.162-4.609,21.227-3.074,6.065-7.116,11.201-12.13,15.405-5.015,4.206-10.432,7.642-16.254,10.31l52.158,77.266h-41.727l-42.333-68.048h-20.014v68.048h-37.603V2.683h51.673ZM695.989,33.493h-11.402v47.913h12.13c12.452,0,21.367-2.081,26.746-6.247,5.377-4.164,8.066-10.29,8.066-18.376,0-8.409-2.893-14.393-8.673-17.952-5.782-3.557-14.738-5.337-26.867-5.337Z"/><path d="M873.181,180.02h-37.603V33.978h-48.154V2.683h133.912v31.295h-48.155v146.042Z"/><path d="M1034.118,139.749c0,9.219-2.164,17.002-6.489,23.35-4.327,6.349-10.776,11.159-19.347,14.435-8.572,3.275-19.247,4.912-32.022,4.912-9.462,0-17.569-.606-24.32-1.819-6.753-1.213-13.566-3.233-20.438-6.065v-30.567c7.357,3.317,15.263,6.046,23.713,8.188,8.449,2.144,15.869,3.214,22.259,3.214,7.196,0,12.352-1.071,15.465-3.214,3.112-2.142,4.67-4.952,4.67-8.43,0-2.263-.627-4.306-1.88-6.126-1.255-1.819-3.942-3.881-8.066-6.186s-10.595-5.316-19.407-9.037c-8.491-3.557-15.466-7.156-20.924-10.795-5.459-3.639-9.503-7.945-12.13-12.918-2.629-4.973-3.942-11.3-3.942-18.983,0-12.533,4.871-21.974,14.616-28.323,9.744-6.347,22.783-9.522,39.119-9.522,8.409,0,16.436.849,24.077,2.547,7.642,1.698,15.505,4.408,23.593,8.127l-11.16,26.686c-6.713-2.911-13.039-5.295-18.982-7.156-5.944-1.859-11.99-2.79-18.134-2.79-5.419,0-9.503.728-12.252,2.183-2.75,1.456-4.124,3.681-4.124,6.671,0,2.183.707,4.124,2.123,5.822,1.414,1.698,4.164,3.578,8.248,5.64,4.083,2.062,10.087,4.712,18.013,7.945,7.682,3.154,14.354,6.449,20.015,9.886,5.659,3.438,10.025,7.683,13.1,12.736,3.072,5.055,4.609,11.584,4.609,19.59Z"/><path class="cls-1" d="M122.659,65.362h-55.184L26.728,24.615c1.716-2.326,2.732-5.197,2.732-8.303,0-7.727-6.286-14.014-14.015-14.014S1.432,8.585,1.432,16.312s6.286,14.015,14.014,14.015c1.787,0,3.495-.34,5.067-.952l43.747,43.748h50.713l-6.048,14.213H28.2c-1.688-5.845-7.083-10.134-13.464-10.134-7.727,0-14.015,6.287-14.015,14.014s6.287,14.015,14.015,14.015c6.381,0,11.776-4.289,13.464-10.134h77.423l-6.048,14.213h-36.746l-43.748,43.747c-1.573-.612-3.28-.951-5.066-.951-7.727,0-14.015,6.287-14.015,14.015s6.287,14.014,14.015,14.014,14.015-6.287,14.015-14.014c0-3.106-1.017-5.977-2.732-8.303l40.747-40.747h34.612l22.004-51.708Z"/><path d="M1091.977,0c-20.053,0-36.31,16.256-36.31,36.31s16.256,36.31,36.31,36.31,36.31-16.256,36.31-36.31S1112.031,0,1091.977,0M1091.977,65.357c-16.043,0-29.048-13.005-29.048-29.048s13.005-29.048,29.048-29.048,29.048,13.005,29.048,29.048-13.005,29.048-29.048,29.048M1092.885,40.921h-5.229v11.728h-6.572v-31.916h11.837c3.106-.191,6.184.694,8.714,2.505,2.12,1.793,3.254,4.493,3.05,7.262.07,1.915-.422,3.808-1.416,5.446-1.025,1.618-2.52,2.885-4.285,3.631l6.899,13.035v.363h-7.044l-5.955-11.728M1087.656,35.947h5.301c1.386.078,2.75-.377,3.813-1.271.972-.946,1.465-2.28,1.343-3.631.111-1.336-.351-2.656-1.271-3.631-1.076-.947-2.495-1.406-3.921-1.271h-5.265v9.804Z"/></svg>